<?xml version="1.0" encoding="utf-8"?>
<!-- Generator: Adobe Illustrator 24.3.0, SVG Export Plug-In . SVG Version: 6.00 Build 0)  -->
<svg version="1.1" id="Layer_1" xmlns="http://www.w3.org/2000/svg" xmlns:xlink="http://www.w3.org/1999/xlink" x="0px" y="0px"
	 viewBox="0 0 792 759.4" style="enable-background:new 0 0 792 759.4;" xml:space="preserve">
<style type="text/css">
	.st0{fill:#293450;}
	.st1{fill:#546B91;}
</style>
<g id="mountian">
	<polygon class="st0" points="-200.6,683.7 41.8,683.7 41.8,487 	"/>
	<polygon class="st1" points="41.8,487 41.8,683.7 284.3,683.7 	"/>
	<polygon class="st0" points="50.5,759.4 399.5,759.4 399.5,87.8 	"/>
	<polygon class="st1" points="399.5,87.8 399.5,759.4 748.5,759.4 	"/>
	<polygon class="st0" points="31.8,759.4 326.5,759.4 326.5,484.9 	"/>
	<polygon class="st1" points="326.5,484.9 326.5,759.4 621.1,759.4 	"/>
	<polygon class="st0" points="403,759.4 649.2,759.4 649.2,285.7 	"/>
	<polygon class="st1" points="649.2,285.7 649.2,759.4 895.4,759.4 	"/>
	<polygon class="st0" points="-68.1,759.4 142.8,759.4 142.8,388.8 	"/>
	<polygon class="st1" points="142.8,388.8 142.8,759.4 353.7,759.4 	"/>
	<polygon class="st0" points="626.4,759.4 758,759.4 758,528.3 	"/>
	<polygon class="st1" points="758,528.3 758,759.4 889.5,759.4 	"/>
</g>
</svg>
