<svg xmlns="http://www.w3.org/2000/svg" viewBox="0 0 792 1260.46"><defs><style>.cls-1{fill:#5d7c38;}.cls-11,.cls-2{opacity:0.29;}.cls-11,.cls-3{fill:#cde5be;}.cls-4{fill:#23420e;}.cls-5{fill:#416325;}.cls-6{fill:#939599;}.cls-7{fill:#6d6e72;}.cls-8{fill:#2f4b14;}.cls-9{fill:#ffce00;}.cls-10{fill:#f5b400;}.cls-12{fill:#ee9a39;}.cls-13{fill:#d77533;}</style></defs><g id="treesgrass"><rect class="cls-1" x="-5.76" y="270.43" width="797.76" height="990.03"/><g class="cls-2"><path class="cls-3" d="M574.64,213c-9.94-12.7-31.44-25.4-65.16-38.1,21.16,45.73,35.93,91.45,9.22,137.17-23.45,45.72-88.38,91.44-151.4,137.16C304,494.9,242.51,540.63,218.75,586.35c-27.62,45.72-17.53,91.44-26.86,137.16,10.19,12.7,32.27,25.4,66.81,38.1-19.91-45.72-34.28-91.45-7.38-137.17C275,578.72,339.85,533,402.84,487.28c63.26-45.72,124.66-91.44,148-137.17C578.05,304.39,567.21,258.67,574.64,213Z"/></g><g class="cls-2"><path class="cls-3" d="M225.15,639.35c.51,15.73-14.54,31.47-35.45,47.2,38.72,15.71,81.07,31.41,116,47.12,35.27,15.7,63.15,31.4,80.13,47.11,17.3,15.7,23.7,31.41,23.21,47.11-.18,15.7-7.25,31.41-9.68,47.11-2.21,15.71-4.92,31.41,2.61,47.11,7.15,15.71,24.53,31.41,53.73,47.12,28.82,15.7,69.45,31.4,114.32,47.11,44.48,15.7,93.2,31.41,129.39,47.11-.92-15.74,13.8-31.47,34.43-47.21-40.48-15.7-84.6-31.4-121.19-47.11-36.9-15.7-66.26-31.4-84.46-47.11-18.51-15.7-25.86-31.41-26-47.11-.44-15.7,6.35-31.41,8.85-47.11,2.29-15.71,5.43-31.41-1.35-47.11-6.4-15.71-22.71-31.41-50.6-47.12-27.5-15.7-66.57-31.4-109.76-47.11C306.55,670.76,259.62,655.05,225.15,639.35Z"/></g><polygon class="cls-4" points="403.71 209.88 384.15 274.53 423.28 274.53 423.28 145.23 403.71 209.88"/><polygon class="cls-5" points="442.85 209.88 423.28 145.23 423.28 274.53 462.42 274.53 442.85 209.88"/><polygon class="cls-4" points="607.34 214.48 587.78 279.13 626.91 279.13 626.91 149.83 607.34 214.48"/><polygon class="cls-5" points="646.48 214.48 626.91 149.83 626.91 279.13 666.04 279.13 646.48 214.48"/><polygon class="cls-4" points="304.54 245.77 295.07 277.06 314.01 277.06 314.01 214.48 304.54 245.77"/><polygon class="cls-5" points="323.48 245.77 314.01 214.48 314.01 277.06 332.95 277.06 323.48 245.77"/><polygon class="cls-4" points="339.28 235.38 327.34 287.06 351.22 287.06 351.22 183.69 339.28 235.38"/><polygon class="cls-5" points="363.17 235.38 351.22 183.69 351.22 287.06 375.11 287.06 363.17 235.38"/><path class="cls-6" d="M413.12,274.31a2.59,2.59,0,0,0-2.59-2.59v5.19A2.59,2.59,0,0,0,413.12,274.31Z"/><path class="cls-7" d="M410.53,276.91v-5.19a2.6,2.6,0,1,0,0,5.19Z"/><path class="cls-6" d="M427,270.25a6.65,6.65,0,0,0-6.65-6.65v13.31A6.66,6.66,0,0,0,427,270.25Z"/><path class="cls-7" d="M420.37,276.91V263.6a6.66,6.66,0,1,0,0,13.31Z"/><path class="cls-6" d="M419.53,272.55a4.36,4.36,0,0,0-4.36-4.36v8.72A4.36,4.36,0,0,0,419.53,272.55Z"/><path class="cls-7" d="M415.17,276.91v-8.72a4.36,4.36,0,0,0,0,8.72Z"/><path class="cls-6" d="M431.38,272.55a4.36,4.36,0,0,0-4.36-4.36v8.72A4.36,4.36,0,0,0,431.38,272.55Z"/><path class="cls-7" d="M427,276.91v-8.72a4.36,4.36,0,0,0,0,8.72Z"/><path class="cls-6" d="M333.92,284.53a12.68,12.68,0,0,0-12.68-12.68v25.36A12.68,12.68,0,0,0,333.92,284.53Z"/><path class="cls-7" d="M321.24,297.21V271.85a12.68,12.68,0,1,0,0,25.36Z"/><path class="cls-6" d="M319.64,288.91a8.3,8.3,0,0,0-8.3-8.3v16.6A8.3,8.3,0,0,0,319.64,288.91Z"/><path class="cls-7" d="M311.34,297.21v-16.6a8.3,8.3,0,0,0,0,16.6Z"/><path class="cls-6" d="M342.22,288.91a8.29,8.29,0,0,0-8.3-8.3v16.6A8.29,8.29,0,0,0,342.22,288.91Z"/><path class="cls-7" d="M333.92,297.21v-16.6a8.3,8.3,0,0,0,0,16.6Z"/><path class="cls-6" d="M346.58,293.46a3.45,3.45,0,0,0-3.45-3.46v6.92A3.45,3.45,0,0,0,346.58,293.46Z"/><path class="cls-7" d="M343.13,296.92V290a3.46,3.46,0,1,0,0,6.92Z"/><path class="cls-6" d="M342.69,294.65a2.26,2.26,0,0,0-2.26-2.26v4.53A2.27,2.27,0,0,0,342.69,294.65Z"/><path class="cls-7" d="M340.43,296.92v-4.53a2.27,2.27,0,1,0,0,4.53Z"/><path class="cls-6" d="M348.85,294.65a2.27,2.27,0,0,0-2.27-2.26v4.53A2.27,2.27,0,0,0,348.85,294.65Z"/><path class="cls-7" d="M346.58,296.92v-4.53a2.27,2.27,0,0,0,0,4.53Z"/><polygon class="cls-4" points="376.33 251.32 363.13 294.92 389.52 294.92 389.52 207.73 376.33 251.32"/><polygon class="cls-5" points="402.71 251.32 389.52 207.73 389.52 294.92 415.91 294.92 402.71 251.32"/><polygon class="cls-4" points="202.8 242.32 187.94 291.43 217.66 291.43 217.66 193.21 202.8 242.32"/><polygon class="cls-5" points="232.53 242.32 217.66 193.21 217.66 291.43 247.39 291.43 232.53 242.32"/><polygon class="cls-4" points="240.96 247.08 215.18 332.26 266.74 332.26 266.74 161.89 240.96 247.08"/><polygon class="cls-5" points="292.52 247.08 266.74 161.89 266.74 332.26 318.3 332.26 292.52 247.08"/><polygon class="cls-8" points="292.6 322.44 293.55 333.35 294.5 344.27 292.6 344.27 290.71 344.27 291.65 333.35 292.6 322.44"/><polygon class="cls-8" points="267.87 313.19 268.87 323.27 269.86 333.36 267.87 333.36 265.88 333.36 266.88 323.27 267.87 313.19"/><polygon class="cls-8" points="270.49 311.78 271.55 322.57 272.62 333.36 270.49 333.36 268.36 333.36 269.43 322.57 270.49 311.78"/><polygon class="cls-8" points="273.11 314.13 274.05 323.75 275 333.36 273.11 333.36 271.21 333.36 272.16 323.75 273.11 314.13"/><polygon class="cls-8" points="275.58 306.36 276.8 319.86 278.02 333.36 275.58 333.36 273.13 333.36 274.35 319.86 275.58 306.36"/><polygon class="cls-8" points="278.8 304.48 280.11 318.92 281.42 333.36 278.8 333.36 276.18 333.36 277.49 318.92 278.8 304.48"/><polygon class="cls-8" points="282.02 307.62 283.19 320.49 284.35 333.36 282.02 333.36 279.68 333.36 280.85 320.49 282.02 307.62"/><polygon class="cls-8" points="285.46 309.62 286.62 322.49 287.79 335.36 285.46 335.36 283.12 335.36 284.29 322.49 285.46 309.62"/><polygon class="cls-8" points="287.37 315.19 288.37 325.27 289.36 335.36 287.37 335.36 285.38 335.36 286.38 325.27 287.37 315.19"/><polygon class="cls-8" points="289.99 318.78 291.05 329.57 292.12 340.36 289.99 340.36 287.86 340.36 288.92 329.57 289.99 318.78"/><polygon class="cls-8" points="295.07 314.62 296.3 329.94 297.52 345.27 295.07 345.27 292.62 345.27 293.85 329.94 295.07 314.62"/><polygon class="cls-8" points="304.89 323.12 306.12 338.45 307.34 353.77 304.89 353.77 302.44 353.77 303.67 338.45 304.89 323.12"/><polygon class="cls-8" points="308.87 325.74 310.09 341.07 311.32 356.4 308.87 356.4 306.42 356.4 307.64 341.07 308.87 325.74"/><polygon class="cls-8" points="312.25 329.56 313.48 344.89 314.7 360.21 312.25 360.21 309.8 360.21 311.02 344.89 312.25 329.56"/><polygon class="cls-8" points="298.3 311.48 299.61 327.87 300.92 344.27 298.3 344.27 295.67 344.27 296.99 327.87 298.3 311.48"/><polygon class="cls-8" points="299.52 319.05 300.68 333.66 301.85 348.27 299.52 348.27 297.18 348.27 298.35 333.66 299.52 319.05"/><polygon class="cls-8" points="301.85 320.75 303.02 335.36 304.19 349.97 301.85 349.97 299.52 349.97 300.68 335.36 301.85 320.75"/><path class="cls-6" d="M211.34,352.85a11.7,11.7,0,0,0-11.7-11.7v23.4A11.7,11.7,0,0,0,211.34,352.85Z"/><path class="cls-7" d="M199.64,364.55v-23.4a11.7,11.7,0,1,0,0,23.4Z"/><path class="cls-6" d="M274.11,334.51a30,30,0,0,0-30-30v60.07A30,30,0,0,0,274.11,334.51Z"/><path class="cls-7" d="M244.07,364.55V304.48a30,30,0,1,0,0,60.07Z"/><path class="cls-6" d="M240.28,344.89a19.67,19.67,0,0,0-19.66-19.67v39.33A19.66,19.66,0,0,0,240.28,344.89Z"/><path class="cls-7" d="M220.62,364.55V325.22a19.67,19.67,0,1,0,0,39.33Z"/><path class="cls-6" d="M293.77,344.89a19.67,19.67,0,0,0-19.66-19.67v39.33A19.66,19.66,0,0,0,293.77,344.89Z"/><path class="cls-7" d="M274.11,364.55V325.22a19.67,19.67,0,1,0,0,39.33Z"/><path class="cls-6" d="M308.34,354.81a10.54,10.54,0,0,0-10.54-10.54v21.09A10.54,10.54,0,0,0,308.34,354.81Z"/><path class="cls-7" d="M297.8,365.36V344.27a10.55,10.55,0,1,0,0,21.09Z"/><path class="cls-6" d="M296.47,358.46a6.91,6.91,0,0,0-6.91-6.91v13.81A6.9,6.9,0,0,0,296.47,358.46Z"/><path class="cls-7" d="M289.56,365.36V351.55a6.91,6.91,0,0,0,0,13.81Z"/><path class="cls-6" d="M315.25,358.46a6.91,6.91,0,0,0-6.91-6.91v13.81A6.9,6.9,0,0,0,315.25,358.46Z"/><path class="cls-7" d="M308.34,365.36V351.55a6.91,6.91,0,0,0,0,13.81Z"/><polygon class="cls-4" points="12.6 220.32 -15.24 312.29 40.43 312.29 40.43 128.34 12.6 220.32"/><polygon class="cls-5" points="68.27 220.32 40.43 128.34 40.43 312.29 96.1 312.29 68.27 220.32"/><polygon class="cls-4" points="81.45 271.05 19.55 475.59 143.36 475.59 143.36 66.51 81.45 271.05"/><polygon class="cls-5" points="205.26 271.05 143.36 66.51 143.36 475.59 267.17 475.59 205.26 271.05"/><circle class="cls-9" cx="240.18" cy="496.31" r="3"/><circle class="cls-10" cx="240.18" cy="496.31" r="1.17"/><circle class="cls-9" cx="276.74" cy="498.8" r="1.67"/><circle class="cls-10" cx="276.74" cy="498.8" r="0.6"/><circle class="cls-9" cx="241.71" cy="485.39" r="1.82"/><circle class="cls-10" cx="241.71" cy="485.39" r="0.57"/><circle class="cls-9" cx="272.86" cy="492.3" r="3.61"/><circle class="cls-10" cx="272.86" cy="492.3" r="1.29"/><circle class="cls-9" cx="250.92" cy="488.51" r="4.99"/><circle class="cls-10" cx="250.92" cy="488.51" r="1.29"/><circle class="cls-9" cx="263.21" cy="491.19" r="1.82"/><circle class="cls-10" cx="263.21" cy="491.19" r="0.71"/><circle class="cls-10" cx="287.29" cy="484.49" r="0.41"/><circle class="cls-9" cx="254.8" cy="498.62" r="1.18"/><circle class="cls-10" cx="254.8" cy="498.62" r="0.41"/><circle class="cls-9" cx="263.86" cy="502.35" r="3.61"/><circle class="cls-10" cx="263.86" cy="502.35" r="1.29"/><circle class="cls-9" cx="284.83" cy="492.3" r="2.55"/><circle class="cls-10" cx="284.83" cy="492.3" r="0.89"/><circle class="cls-9" cx="249.35" cy="503.65" r="1.18"/><circle class="cls-10" cx="249.35" cy="503.65" r="0.48"/><path class="cls-6" d="M245.15,474.82a6.79,6.79,0,0,0-6.79-6.79v13.58A6.79,6.79,0,0,0,245.15,474.82Z"/><path class="cls-7" d="M238.36,481.61V468a6.79,6.79,0,0,0,0,13.58Z"/><path class="cls-6" d="M281.58,464.18a17.44,17.44,0,0,0-17.43-17.44v34.87A17.43,17.43,0,0,0,281.58,464.18Z"/><path class="cls-7" d="M264.15,481.61V446.74a17.44,17.44,0,1,0,0,34.87Z"/><path class="cls-6" d="M262,470.2a11.41,11.41,0,0,0-11.42-11.41v22.82A11.41,11.41,0,0,0,262,470.2Z"/><path class="cls-7" d="M250.53,481.61V458.79a11.41,11.41,0,1,0,0,22.82Z"/><path class="cls-6" d="M293,470.2a11.41,11.41,0,0,0-11.42-11.41v22.82A11.41,11.41,0,0,0,293,470.2Z"/><path class="cls-7" d="M281.58,481.61V458.79a11.41,11.41,0,1,0,0,22.82Z"/><path class="cls-6" d="M375.31,585a23.38,23.38,0,0,0-23.38-23.38v46.76A23.38,23.38,0,0,0,375.31,585Z"/><path class="cls-7" d="M351.93,608.39V561.63a23.38,23.38,0,0,0,0,46.76Z"/><path class="cls-6" d="M349,593.08a15.3,15.3,0,0,0-15.31-15.3v30.61A15.31,15.31,0,0,0,349,593.08Z"/><path class="cls-7" d="M333.67,608.39V577.78a15.31,15.31,0,0,0,0,30.61Z"/><path class="cls-6" d="M390.61,593.08a15.3,15.3,0,0,0-15.3-15.3v30.61A15.31,15.31,0,0,0,390.61,593.08Z"/><path class="cls-7" d="M375.31,608.39V577.78a15.31,15.31,0,1,0,0,30.61Z"/><polygon class="cls-5" points="80.09 407.82 20.43 248.44 20.43 567.21 139.76 567.21 80.09 407.82"/><polygon class="cls-4" points="-39.23 407.82 -98.89 567.21 20.43 567.21 20.43 248.44 -39.23 407.82"/><polygon class="cls-4" points="126.03 563.18 64.13 767.72 187.94 767.72 187.94 358.64 126.03 563.18"/><polygon class="cls-5" points="249.84 563.18 187.94 358.64 187.94 767.72 311.75 767.72 249.84 563.18"/><path class="cls-6" d="M247.19,753.17a43,43,0,0,0-43-43v85.91A43,43,0,0,0,247.19,753.17Z"/><path class="cls-7" d="M204.23,796.12V710.21a43,43,0,0,0,0,85.91Z"/><path class="cls-6" d="M198.82,768a28.12,28.12,0,0,0-28.12-28.12v56.24A28.12,28.12,0,0,0,198.82,768Z"/><path class="cls-7" d="M170.7,796.12V739.88a28.12,28.12,0,1,0,0,56.24Z"/><path class="cls-6" d="M275.31,768a28.12,28.12,0,0,0-28.12-28.12v56.24A28.12,28.12,0,0,0,275.31,768Z"/><path class="cls-7" d="M247.19,796.12V739.88a28.12,28.12,0,1,0,0,56.24Z"/><path class="cls-6" d="M157.43,779.39a16.73,16.73,0,0,0-16.73-16.73v33.46A16.73,16.73,0,0,0,157.43,779.39Z"/><path class="cls-7" d="M140.7,796.12V762.66a16.73,16.73,0,1,0,0,33.46Z"/><polygon class="cls-4" points="-24.82 730.91 -104.06 992.75 54.43 992.75 54.43 469.08 -24.82 730.91"/><polygon class="cls-5" points="133.67 730.91 54.43 469.08 54.43 992.75 212.92 992.75 133.67 730.91"/><ellipse class="cls-10" cx="605.97" cy="644.09" rx="0.42" ry="0.39" transform="translate(-110.3 125.43) rotate(-10.84)"/><polygon class="cls-8" points="435.17 262.93 436.12 272.55 437.07 282.18 435.17 282.18 433.27 282.18 434.22 272.55 435.17 262.93"/><polygon class="cls-8" points="433.27 264.06 434.22 273.69 435.17 283.31 433.27 283.31 431.38 283.31 432.33 273.69 433.27 264.06"/><polygon class="cls-8" points="437.5 265.02 438.35 273.6 439.19 282.18 437.5 282.18 435.81 282.18 436.66 273.6 437.5 265.02"/><polygon class="cls-8" points="439.98 268.24 440.76 275.21 441.55 282.18 439.98 282.18 438.41 282.18 439.2 275.21 439.98 268.24"/><polygon class="cls-8" points="442.04 267.27 442.88 274.72 443.72 282.18 442.04 282.18 440.37 282.18 441.2 274.72 442.04 267.27"/><polygon class="cls-8" points="444.11 268.89 444.85 275.54 445.6 282.18 444.11 282.18 442.61 282.18 443.36 275.54 444.11 268.89"/><path class="cls-6" d="M437.78,282.26a2.12,2.12,0,0,0-2.11-2.11v4.22A2.11,2.11,0,0,0,437.78,282.26Z"/><path class="cls-7" d="M435.67,284.37v-4.22a2.11,2.11,0,0,0,0,4.22Z"/><path class="cls-6" d="M449.1,279a5.42,5.42,0,0,0-5.42-5.42v10.84A5.42,5.42,0,0,0,449.1,279Z"/><path class="cls-7" d="M443.68,284.37V273.53a5.42,5.42,0,0,0,0,10.84Z"/><path class="cls-6" d="M443,280.82a3.55,3.55,0,0,0-3.55-3.54v7.09A3.55,3.55,0,0,0,443,280.82Z"/><path class="cls-7" d="M439.45,284.37v-7.09a3.55,3.55,0,1,0,0,7.09Z"/><path class="cls-6" d="M452.65,280.82a3.55,3.55,0,0,0-3.55-3.54v7.09A3.55,3.55,0,0,0,452.65,280.82Z"/><path class="cls-7" d="M449.1,284.37v-7.09a3.55,3.55,0,1,0,0,7.09Z"/><path class="cls-6" d="M419,292.79a1.44,1.44,0,0,0-1.44-1.44v2.89A1.45,1.45,0,0,0,419,292.79Z"/><path class="cls-7" d="M417.58,294.24v-2.89a1.45,1.45,0,1,0,0,2.89Z"/><path class="cls-6" d="M426.77,290.53a3.71,3.71,0,0,0-3.71-3.71v7.42A3.72,3.72,0,0,0,426.77,290.53Z"/><path class="cls-7" d="M423.06,294.24v-7.42a3.71,3.71,0,1,0,0,7.42Z"/><path class="cls-6" d="M422.6,291.81a2.43,2.43,0,0,0-2.43-2.43v4.86A2.43,2.43,0,0,0,422.6,291.81Z"/><path class="cls-7" d="M420.17,294.24v-4.86a2.43,2.43,0,0,0,0,4.86Z"/><path class="cls-6" d="M429.2,291.81a2.43,2.43,0,0,0-2.43-2.43v4.86A2.43,2.43,0,0,0,429.2,291.81Z"/><path class="cls-7" d="M426.77,294.24v-4.86a2.43,2.43,0,1,0,0,4.86Z"/><path class="cls-6" d="M465.05,271.07A1.05,1.05,0,0,0,464,270v2.11A1.05,1.05,0,0,0,465.05,271.07Z"/><path class="cls-7" d="M464,272.12V270a1.06,1.06,0,0,0,0,2.11Z"/><path class="cls-6" d="M470.69,269.42a2.7,2.7,0,0,0-2.7-2.71v5.41A2.7,2.7,0,0,0,470.69,269.42Z"/><path class="cls-7" d="M468,272.12v-5.41a2.71,2.71,0,0,0,0,5.41Z"/><path class="cls-6" d="M467.65,270.35a1.77,1.77,0,0,0-1.77-1.77v3.54A1.77,1.77,0,0,0,467.65,270.35Z"/><path class="cls-7" d="M465.88,272.12v-3.54a1.77,1.77,0,1,0,0,3.54Z"/><path class="cls-6" d="M472.46,270.35a1.77,1.77,0,0,0-1.77-1.77v3.54A1.77,1.77,0,0,0,472.46,270.35Z"/><path class="cls-7" d="M470.69,272.12v-3.54a1.77,1.77,0,1,0,0,3.54Z"/><path class="cls-6" d="M472.62,271.9a1,1,0,0,0-1.05-1V273A1,1,0,0,0,472.62,271.9Z"/><path class="cls-7" d="M471.57,273v-2.1a1.05,1.05,0,1,0,0,2.1Z"/><path class="cls-6" d="M478.27,270.25a2.7,2.7,0,0,0-2.71-2.7V273A2.7,2.7,0,0,0,478.27,270.25Z"/><path class="cls-7" d="M475.56,273v-5.4a2.7,2.7,0,0,0,0,5.4Z"/><path class="cls-6" d="M475.22,271.19a1.76,1.76,0,0,0-1.76-1.77V273A1.76,1.76,0,0,0,475.22,271.19Z"/><path class="cls-7" d="M473.46,273v-3.53a1.77,1.77,0,1,0,0,3.53Z"/><path class="cls-6" d="M480,271.19a1.77,1.77,0,0,0-1.77-1.77V273A1.77,1.77,0,0,0,480,271.19Z"/><path class="cls-7" d="M478.27,273v-3.53a1.77,1.77,0,1,0,0,3.53Z"/><path class="cls-6" d="M399.21,303.31a3.45,3.45,0,0,0-3.45-3.46v6.92A3.45,3.45,0,0,0,399.21,303.31Z"/><path class="cls-7" d="M395.76,306.77v-6.92a3.46,3.46,0,1,0,0,6.92Z"/><path class="cls-6" d="M417.76,297.89a8.89,8.89,0,0,0-8.88-8.88v17.76A8.89,8.89,0,0,0,417.76,297.89Z"/><path class="cls-7" d="M408.88,306.77V289a8.88,8.88,0,0,0,0,17.76Z"/><path class="cls-6" d="M407.76,301a5.81,5.81,0,0,0-5.81-5.81v11.62A5.81,5.81,0,0,0,407.76,301Z"/><path class="cls-7" d="M402,306.77V295.15a5.81,5.81,0,0,0,0,11.62Z"/><path class="cls-6" d="M423.57,301a5.81,5.81,0,0,0-5.81-5.81v11.62A5.81,5.81,0,0,0,423.57,301Z"/><path class="cls-7" d="M417.76,306.77V295.15a5.81,5.81,0,0,0,0,11.62Z"/><circle class="cls-9" cx="560.04" cy="372.21" r="2"/><circle class="cls-10" cx="560.04" cy="372.21" r="0.63"/><circle class="cls-9" cx="548.91" cy="370.21" r="5.66"/><circle class="cls-10" cx="548.91" cy="370.21" r="2.32"/><circle class="cls-9" cx="556.07" cy="381.54" r="3.97"/><circle class="cls-10" cx="556.07" cy="381.54" r="1.42"/><circle class="cls-9" cx="549.08" cy="398.06" r="5.49"/><circle class="cls-10" cx="549.08" cy="398.06" r="1.42"/><circle class="cls-9" cx="543.26" cy="387.62" r="2"/><circle class="cls-10" cx="543.26" cy="387.62" r="0.78"/><circle class="cls-9" cx="539.25" cy="378.64" r="1.3"/><circle class="cls-10" cx="539.25" cy="378.64" r="0.45"/><circle class="cls-9" cx="532.06" cy="387.62" r="3.97"/><circle class="cls-10" cx="532.06" cy="387.62" r="1.42"/><circle class="cls-9" cx="519.4" cy="400.56" r="5.66"/><circle class="cls-10" cx="519.4" cy="400.56" r="1.98"/><circle class="cls-9" cx="532.5" cy="397.11" r="1.3"/><circle class="cls-10" cx="532.5" cy="397.11" r="0.53"/><ellipse class="cls-11" cx="344.09" cy="411.87" rx="27.29" ry="6.37"/><polygon class="cls-8" points="453.53 277.28 454.48 286.9 455.43 296.53 453.53 296.53 451.63 296.53 452.58 286.9 453.53 277.28"/><polygon class="cls-8" points="451.63 277.28 452.58 286.9 453.53 296.53 451.63 296.53 449.73 296.53 450.68 286.9 451.63 277.28"/><polygon class="cls-8" points="455.86 279.38 456.71 287.95 457.55 296.53 455.86 296.53 454.17 296.53 455.01 287.95 455.86 279.38"/><polygon class="cls-8" points="457.88 282.59 458.67 289.56 459.45 296.53 457.88 296.53 456.31 296.53 457.1 289.56 457.88 282.59"/><polygon class="cls-8" points="459.94 281.62 460.78 289.08 461.62 296.53 459.94 296.53 458.27 296.53 459.1 289.08 459.94 281.62"/><polygon class="cls-8" points="462 283.25 462.75 289.89 463.5 296.53 462 296.53 460.51 296.53 461.26 289.89 462 283.25"/><polygon class="cls-8" points="431.74 293.68 432.69 303.31 433.64 312.94 431.74 312.94 429.84 312.94 430.79 303.31 431.74 293.68"/><polygon class="cls-8" points="429.54 293.68 430.49 303.31 431.44 312.94 429.54 312.94 427.64 312.94 428.59 303.31 429.54 293.68"/><polygon class="cls-8" points="421.5 295.78 422.34 304.36 423.19 312.94 421.5 312.94 419.8 312.94 420.65 304.36 421.5 295.78"/><polygon class="cls-8" points="423.52 299 424.3 305.97 425.08 312.94 423.52 312.94 421.95 312.94 422.73 305.97 423.52 299"/><polygon class="cls-8" points="425.58 298.03 426.42 305.48 427.25 312.94 425.58 312.94 423.9 312.94 424.74 305.48 425.58 298.03"/><polygon class="cls-8" points="427.64 299.65 428.39 306.29 429.13 312.94 427.64 312.94 426.14 312.94 426.89 306.29 427.64 299.65"/><path class="cls-6" d="M50.05,313.52a1,1,0,0,0-1-1v2A1,1,0,0,0,50.05,313.52Z"/><path class="cls-7" d="M49.07,314.5v-2a1,1,0,1,0,0,2Z"/><path class="cls-6" d="M55.32,312a2.52,2.52,0,0,0-2.52-2.52v5A2.52,2.52,0,0,0,55.32,312Z"/><path class="cls-7" d="M52.8,314.5v-5a2.52,2.52,0,1,0,0,5Z"/><path class="cls-6" d="M52.48,312.85a1.65,1.65,0,0,0-1.65-1.65v3.3A1.65,1.65,0,0,0,52.48,312.85Z"/><path class="cls-7" d="M50.83,314.5v-3.3a1.65,1.65,0,1,0,0,3.3Z"/><path class="cls-6" d="M57,312.85a1.64,1.64,0,0,0-1.64-1.65v3.3A1.64,1.64,0,0,0,57,312.85Z"/><path class="cls-7" d="M55.32,314.5v-3.3a1.65,1.65,0,1,0,0,3.3Z"/><path class="cls-6" d="M64.36,313.34A3.34,3.34,0,0,0,61,310v6.69A3.34,3.34,0,0,0,64.36,313.34Z"/><path class="cls-7" d="M61,316.69V310a3.35,3.35,0,0,0,0,6.69Z"/><path class="cls-6" d="M60.6,314.5a2.19,2.19,0,0,0-2.19-2.19v4.38A2.19,2.19,0,0,0,60.6,314.5Z"/><path class="cls-7" d="M58.41,316.69v-4.38a2.19,2.19,0,0,0,0,4.38Z"/><path class="cls-6" d="M66.55,314.5a2.19,2.19,0,0,0-2.19-2.19v4.38A2.19,2.19,0,0,0,66.55,314.5Z"/><path class="cls-7" d="M64.36,316.69v-4.38a2.19,2.19,0,0,0,0,4.38Z"/><circle class="cls-9" cx="312.78" cy="301.63" r="1.15"/><circle class="cls-10" cx="312.78" cy="301.63" r="0.4"/><circle class="cls-9" cx="315.6" cy="300.48" r="0.79"/><circle class="cls-10" cx="315.6" cy="300.48" r="0.28"/><circle class="cls-9" cx="315.19" cy="302.99" r="0.42"/><circle class="cls-10" cx="315.19" cy="302.99" r="0.15"/><polygon class="cls-12" points="334.3 396.59 324.51 411.87 344.09 411.87 344.09 381.31 334.3 396.59"/><polygon class="cls-13" points="353.88 396.59 344.09 381.31 344.09 411.87 363.67 411.87 353.88 396.59"/><polygon class="cls-4" points="515.28 152.91 484.06 281.43 546.5 281.43 546.5 24.39 515.28 152.91"/><polygon class="cls-5" points="577.73 152.91 546.5 24.39 546.5 281.43 608.95 281.43 577.73 152.91"/><polygon class="cls-4" points="486.87 261.93 480.04 284.53 493.71 284.53 493.71 239.34 486.87 261.93"/><polygon class="cls-5" points="500.55 261.93 493.71 239.34 493.71 284.53 507.39 284.53 500.55 261.93"/><polygon class="cls-4" points="504.02 261.67 494.11 294.43 513.94 294.43 513.94 228.91 504.02 261.67"/><polygon class="cls-5" points="523.85 261.67 513.94 228.91 513.94 294.43 533.77 294.43 523.85 261.67"/><polygon class="cls-4" points="427.4 423.27 384.81 564 469.99 564 469.99 282.53 427.4 423.27"/><polygon class="cls-5" points="512.59 423.27 469.99 282.53 469.99 564 555.18 564 512.59 423.27"/><polygon class="cls-4" points="753.24 237.1 736.85 291.25 769.63 291.25 769.63 182.94 753.24 237.1"/><polygon class="cls-5" points="786.02 237.1 769.63 182.94 769.63 291.25 802.41 291.25 786.02 237.1"/><polygon class="cls-4" points="655.65 257.34 637.06 339.96 674.25 339.96 674.25 174.71 655.65 257.34"/><polygon class="cls-5" points="692.84 257.34 674.25 174.71 674.25 339.96 711.43 339.96 692.84 257.34"/><polygon class="cls-8" points="601 265.87 602.99 283.13 604.98 300.39 601 300.39 597.03 300.39 599.01 283.13 601 265.87"/><polygon class="cls-8" points="615.55 280.74 617.44 294.24 619.34 307.74 615.55 307.74 611.76 307.74 613.65 294.24 615.55 280.74"/><polygon class="cls-8" points="613.33 280.74 615.23 294.24 617.12 307.74 613.33 307.74 609.54 307.74 611.44 294.24 613.33 280.74"/><polygon class="cls-8" points="606.24 263.46 608.36 281.93 610.49 300.39 606.24 300.39 601.98 300.39 604.11 281.93 606.24 263.46"/><polygon class="cls-8" points="610.49 270.46 612.38 286.92 614.28 303.37 610.49 303.37 606.7 303.37 608.59 286.92 610.49 270.46"/><path class="cls-6" d="M585.2,312.46a5.43,5.43,0,0,0-5.42-5.43v10.85A5.42,5.42,0,0,0,585.2,312.46Z"/><path class="cls-7" d="M579.78,317.88V307a5.43,5.43,0,1,0,0,10.85Z"/><path class="cls-6" d="M614.31,304A13.93,13.93,0,0,0,600.38,290v27.85A13.93,13.93,0,0,0,614.31,304Z"/><path class="cls-7" d="M600.38,317.88V290a13.93,13.93,0,1,0,0,27.85Z"/><path class="cls-6" d="M598.62,308.77a9.11,9.11,0,0,0-9.11-9.12v18.23A9.11,9.11,0,0,0,598.62,308.77Z"/><path class="cls-7" d="M589.51,317.88V299.65a9.12,9.12,0,1,0,0,18.23Z"/><path class="cls-6" d="M623.43,308.77a9.12,9.12,0,0,0-9.12-9.12v18.23A9.12,9.12,0,0,0,623.43,308.77Z"/><path class="cls-7" d="M614.31,317.88V299.65a9.12,9.12,0,1,0,0,18.23Z"/><polygon class="cls-4" points="691.59 271.43 660.36 399.94 722.81 399.94 722.81 142.91 691.59 271.43"/><polygon class="cls-5" points="754.04 271.43 722.81 142.91 722.81 399.94 785.26 399.94 754.04 271.43"/><polygon class="cls-4" points="579.91 423.27 518.01 627.8 641.82 627.8 641.82 218.73 579.91 423.27"/><polygon class="cls-5" points="703.72 423.27 641.82 218.73 641.82 627.8 765.63 627.8 703.72 423.27"/><polygon class="cls-4" points="689.04 506.81 621.68 742.58 756.39 742.58 756.39 271.04 689.04 506.81"/><polygon class="cls-5" points="823.74 506.81 756.39 271.04 756.39 742.58 891.1 742.58 823.74 506.81"/><polygon class="cls-4" points="605.91 883.67 538.56 1119.44 673.27 1119.44 673.27 647.9 605.91 883.67"/><polygon class="cls-5" points="740.62 883.67 673.27 647.9 673.27 1119.44 807.97 1119.44 740.62 883.67"/><polygon class="cls-4" points="477.16 1072.9 423.4 1261.09 530.92 1261.09 530.92 884.72 477.16 1072.9"/><polygon class="cls-5" points="584.68 1072.9 530.92 884.72 530.92 1261.09 638.44 1261.09 584.68 1072.9"/><ellipse class="cls-9" cx="612.46" cy="648.31" rx="1.25" ry="1.33" transform="translate(-126.42 1147.78) rotate(-80.69)"/><ellipse class="cls-10" cx="612.46" cy="648.31" rx="0.39" ry="0.42" transform="translate(-126.42 1147.78) rotate(-80.69)"/><ellipse class="cls-9" cx="619.54" cy="650.74" rx="3.53" ry="3.75" transform="translate(-122.88 1156.79) rotate(-80.69)"/><ellipse class="cls-10" cx="619.54" cy="650.74" rx="1.45" ry="1.54" transform="translate(-122.88 1156.79) rotate(-80.69)"/><ellipse class="cls-10" cx="616.01" cy="642.98" rx="0.89" ry="0.94" transform="translate(-118.19 1146.81) rotate(-80.69)"/><ellipse class="cls-9" cx="644.73" cy="647.69" rx="3.43" ry="3.63" transform="translate(-98.77 1179.11) rotate(-80.69)"/><ellipse class="cls-10" cx="644.73" cy="647.69" rx="0.89" ry="0.94" transform="translate(-98.77 1179.11) rotate(-80.69)"/><ellipse class="cls-9" cx="625" cy="640.61" rx="1.25" ry="1.33" transform="translate(-108.32 1153.69) rotate(-80.69)"/><ellipse class="cls-10" cx="625" cy="640.61" rx="0.49" ry="0.52" transform="translate(-108.32 1153.69) rotate(-80.69)"/><ellipse class="cls-9" cx="633.87" cy="648.57" rx="1.25" ry="1.33" transform="translate(-108.74 1169.13) rotate(-80.69)"/><ellipse class="cls-10" cx="633.87" cy="648.57" rx="0.49" ry="0.52" transform="matrix(0.16, -0.99, 0.99, 0.16, -108.74, 1169.13)"/><ellipse class="cls-9" cx="626.71" cy="646.58" rx="0.81" ry="0.86" transform="translate(-112.77 1160.38) rotate(-80.69)"/><ellipse class="cls-10" cx="626.71" cy="646.58" rx="0.28" ry="0.3" transform="matrix(0.16, -0.99, 0.99, 0.16, -112.77, 1160.38)"/><ellipse class="cls-9" cx="639.44" cy="642.08" rx="0.81" ry="0.86" transform="translate(-97.66 1169.18) rotate(-80.69)"/><ellipse class="cls-10" cx="639.44" cy="642.08" rx="0.28" ry="0.3" transform="translate(-97.66 1169.18) rotate(-80.69)"/><ellipse class="cls-10" cx="632.31" cy="641.81" rx="0.89" ry="0.94" transform="translate(-103.37 1161.92) rotate(-80.69)"/><ellipse class="cls-9" cx="642.9" cy="635.2" rx="3.53" ry="3.75" transform="matrix(0.16, -0.99, 0.99, 0.16, -87.97, 1166.82)"/><ellipse class="cls-10" cx="642.9" cy="635.2" rx="1.24" ry="1.31" transform="matrix(0.16, -0.99, 0.99, 0.16, -87.97, 1166.82)"/><ellipse class="cls-9" cx="632.99" cy="635.91" rx="0.81" ry="0.86" transform="translate(-96.98 1157.64) rotate(-80.69)"/><ellipse class="cls-10" cx="632.99" cy="635.91" rx="0.33" ry="0.35" transform="translate(-96.98 1157.64) rotate(-80.69)"/><ellipse class="cls-9" cx="609.59" cy="656.26" rx="3.75" ry="3.53" transform="translate(-112.53 126.33) rotate(-10.84)"/><ellipse class="cls-10" cx="609.59" cy="656.26" rx="1.54" ry="1.45" transform="translate(-112.53 126.33) rotate(-10.84)"/><ellipse class="cls-9" cx="601.9" cy="650.8" rx="2.63" ry="2.48" transform="translate(-111.64 124.79) rotate(-10.84)"/><ellipse class="cls-10" cx="601.9" cy="650.8" rx="0.94" ry="0.89" transform="translate(-111.64 124.79) rotate(-10.84)"/><ellipse class="cls-9" cx="575.89" cy="655.78" rx="3.63" ry="3.43" transform="translate(-113.04 119.99) rotate(-10.84)"/><ellipse class="cls-10" cx="575.89" cy="655.78" rx="0.94" ry="0.89" transform="matrix(0.98, -0.19, 0.19, 0.98, -113.04, 119.99)"/><ellipse class="cls-9" cx="596.86" cy="655.63" rx="1.33" ry="1.25" transform="translate(-112.64 123.93) rotate(-10.84)"/><ellipse class="cls-10" cx="596.86" cy="655.63" rx="0.52" ry="0.49" transform="translate(-112.64 123.93) rotate(-10.84)"/><ellipse class="cls-9" cx="585.78" cy="651.21" rx="1.33" ry="1.25" transform="translate(-112 121.76) rotate(-10.84)"/><ellipse class="cls-10" cx="585.78" cy="651.21" rx="0.52" ry="0.49" transform="translate(-112 121.76) rotate(-10.84)"/><ellipse class="cls-9" cx="593.2" cy="650.62" rx="0.86" ry="0.81" transform="translate(-111.76 123.15) rotate(-10.84)"/><ellipse class="cls-10" cx="593.2" cy="650.62" rx="0.3" ry="0.28" transform="translate(-111.76 123.15) rotate(-10.84)"/><ellipse class="cls-9" cx="582.79" cy="659.23" rx="0.86" ry="0.81" transform="translate(-113.56 121.35) rotate(-10.84)"/><ellipse class="cls-10" cx="582.79" cy="659.23" rx="0.3" ry="0.28" transform="matrix(0.98, -0.19, 0.19, 0.98, -113.56, 121.35)"/><ellipse class="cls-9" cx="589.57" cy="657.02" rx="2.63" ry="2.48" transform="translate(-113.03 122.58) rotate(-10.84)"/><ellipse class="cls-10" cx="589.57" cy="657.02" rx="0.94" ry="0.89" transform="translate(-113.03 122.58) rotate(-10.84)"/><ellipse class="cls-9" cx="582.85" cy="666.54" rx="3.75" ry="3.53" transform="translate(-114.94 121.49) rotate(-10.84)"/><ellipse class="cls-10" cx="582.85" cy="666.54" rx="1.31" ry="1.24" transform="translate(-114.94 121.49) rotate(-10.84)"/><ellipse class="cls-9" cx="590.97" cy="662.79" rx="0.86" ry="0.81" transform="translate(-114.09 122.95) rotate(-10.84)"/><ellipse class="cls-10" cx="590.97" cy="662.79" rx="0.35" ry="0.33" transform="translate(-114.09 122.95) rotate(-10.84)"/><path class="cls-6" d="M590.59,638.45a6.79,6.79,0,0,0-6.79-6.79v13.58A6.79,6.79,0,0,0,590.59,638.45Z"/><path class="cls-7" d="M583.8,645.24V631.66a6.79,6.79,0,1,0,0,13.58Z"/><path class="cls-6" d="M627,627.8a17.43,17.43,0,0,0-17.43-17.43v34.87A17.43,17.43,0,0,0,627,627.8Z"/><path class="cls-7" d="M609.59,645.24V610.37a17.44,17.44,0,1,0,0,34.87Z"/><path class="cls-6" d="M607.39,633.83A11.41,11.41,0,0,0,596,622.41v22.83A11.41,11.41,0,0,0,607.39,633.83Z"/><path class="cls-7" d="M596,645.24V622.41a11.42,11.42,0,1,0,0,22.83Z"/><path class="cls-6" d="M638.44,633.83A11.42,11.42,0,0,0,627,622.41v22.83A11.41,11.41,0,0,0,638.44,633.83Z"/><path class="cls-7" d="M627,645.24V622.41a11.42,11.42,0,0,0,0,22.83Z"/><path class="cls-6" d="M481.26,566.86a43,43,0,0,0-42.95-43v85.91A43,43,0,0,0,481.26,566.86Z"/><path class="cls-7" d="M438.31,609.81V523.9a43,43,0,1,0,0,85.91Z"/><path class="cls-6" d="M432.9,581.69a28.12,28.12,0,0,0-28.12-28.12v56.24A28.12,28.12,0,0,0,432.9,581.69Z"/><path class="cls-7" d="M404.78,609.81V553.57a28.12,28.12,0,1,0,0,56.24Z"/><path class="cls-6" d="M509.38,581.69a28.11,28.11,0,0,0-28.12-28.12v56.24A28.11,28.11,0,0,0,509.38,581.69Z"/><path class="cls-7" d="M481.26,609.81V553.57a28.12,28.12,0,0,0,0,56.24Z"/><path class="cls-6" d="M391.51,593.08a16.73,16.73,0,0,0-16.73-16.73v33.46A16.73,16.73,0,0,0,391.51,593.08Z"/><path class="cls-7" d="M374.78,609.81V576.35a16.73,16.73,0,1,0,0,33.46Z"/><polygon class="cls-4" points="495.44 603.17 454.6 738.11 536.28 738.11 536.28 468.23 495.44 603.17"/><polygon class="cls-5" points="577.12 603.17 536.28 468.23 536.28 738.11 617.96 738.11 577.12 603.17"/><path class="cls-6" d="M765.93,291.45a2,2,0,0,0-2-2v3.93A2,2,0,0,0,765.93,291.45Z"/><path class="cls-7" d="M764,293.42v-3.93a2,2,0,0,0,0,3.93Z"/><path class="cls-6" d="M776.48,288.37a5,5,0,0,0-5.05-5.05v10.1A5,5,0,0,0,776.48,288.37Z"/><path class="cls-7" d="M771.43,293.42v-10.1a5.05,5.05,0,1,0,0,10.1Z"/><path class="cls-6" d="M770.8,290.11a3.31,3.31,0,0,0-3.31-3.3v6.61A3.31,3.31,0,0,0,770.8,290.11Z"/><path class="cls-7" d="M767.49,293.42v-6.61a3.31,3.31,0,0,0,0,6.61Z"/><path class="cls-6" d="M779.79,290.11a3.31,3.31,0,0,0-3.31-3.3v6.61A3.31,3.31,0,0,0,779.79,290.11Z"/><path class="cls-7" d="M776.48,293.42v-6.61a3.31,3.31,0,0,0,0,6.61Z"/><path class="cls-6" d="M778.76,294.54a2,2,0,0,0-2-2v3.93A2,2,0,0,0,778.76,294.54Z"/><path class="cls-7" d="M776.8,296.5v-3.93a2,2,0,1,0,0,3.93Z"/><path class="cls-6" d="M789.31,291.45a5,5,0,0,0-5-5.05v10.1A5,5,0,0,0,789.31,291.45Z"/><path class="cls-7" d="M784.26,296.5V286.4a5.05,5.05,0,0,0,0,10.1Z"/><path class="cls-6" d="M783.63,293.2a3.31,3.31,0,0,0-3.31-3.31v6.61A3.31,3.31,0,0,0,783.63,293.2Z"/><path class="cls-7" d="M780.32,296.5v-6.61a3.31,3.31,0,0,0,0,6.61Z"/><path class="cls-6" d="M792.62,293.2a3.31,3.31,0,0,0-3.31-3.31v6.61A3.31,3.31,0,0,0,792.62,293.2Z"/><path class="cls-7" d="M789.31,296.5v-6.61a3.31,3.31,0,0,0,0,6.61Z"/></g></svg>