<?xml version="1.0" encoding="utf-8"?>
<!-- Generator: Adobe Illustrator 24.3.0, SVG Export Plug-In . SVG Version: 6.00 Build 0)  -->
<svg version="1.1" id="Layer_1" xmlns="http://www.w3.org/2000/svg" xmlns:xlink="http://www.w3.org/1999/xlink" x="0px" y="0px"
	 viewBox="0 0 792 727.8" style="enable-background:new 0 0 792 727.8;" xml:space="preserve">
<style type="text/css">
	.st0{fill:#D77533;}
	.st1{fill:#EE9A39;}
	.st2{fill:#F2BC62;}
</style>
<g id="sky">
	<circle class="st0" cx="578.1" cy="72.7" r="133.6"/>
	<circle class="st0" cx="420.3" cy="128.3" r="96.9"/>
	<circle class="st0" cx="323.8" cy="27.1" r="96.9"/>
	<circle class="st0" cx="46.6" cy="146.6" r="96.9"/>
	<circle class="st0" cx="667.2" cy="126.6" r="157.8"/>
	<circle class="st0" cx="459.1" cy="0" r="96.9"/>
	<circle class="st0" cx="756.4" cy="72.7" r="96.9"/>
	<circle class="st0" cx="172.6" cy="78.1" r="109.3"/>
	<circle class="st0" cx="-57.9" cy="29.6" r="109.3"/>
	<circle class="st0" cx="73.1" cy="66.8" r="82.4"/>
	<circle class="st0" cx="301.3" cy="194" r="96.9"/>
	<circle class="st1" cx="-59.8" cy="258" r="109.3"/>
	<circle class="st1" cx="57.5" cy="232.9" r="63.9"/>
	<circle class="st1" cx="46.6" cy="308.5" r="63.9"/>
	<circle class="st1" cx="178.1" cy="246.1" r="96.9"/>
	<circle class="st1" cx="355.7" cy="269.1" r="109.3"/>
	<circle class="st1" cx="410.8" cy="330.4" r="109.3"/>
	<circle class="st1" cx="482.4" cy="219.6" r="88.8"/>
	<circle class="st1" cx="590.1" cy="246.1" r="62.6"/>
	<circle class="st1" cx="709" cy="269.1" r="96.9"/>
	<circle class="st2" cx="392.3" cy="531.9" r="138.8"/>
	<circle class="st2" cx="9.3" cy="475.1" r="142.3"/>
	<circle class="st2" cx="116.1" cy="370.1" r="63.9"/>
	<circle class="st2" cx="240.3" cy="448.2" r="144.6"/>
	<circle class="st2" cx="585.2" cy="393.1" r="138.8"/>
	<circle class="st2" cx="813.8" cy="457.7" r="164.8"/>
</g>
</svg>
